<mxfile host="app.diagrams.net" agent="Mozilla/5.0 (X11; Linux x86_64) AppleWebKit/537.36 (KHTML, like Gecko) Chrome/119.0.0.0 Safari/537.36" version="26.0.7" pages="3">
  <diagram id="URWq-XREwgo_VJHnGmWJ" name="Parsing tree">
    <mxGraphModel dx="2049" dy="1077" grid="1" gridSize="10" guides="1" tooltips="1" connect="1" arrows="1" fold="1" page="1" pageScale="1" pageWidth="827" pageHeight="1169" math="0" shadow="0">
      <root>
        <mxCell id="0" />
        <mxCell id="1" parent="0" />
        <mxCell id="8BeYVjmtPHPCA1mixDrs-1" value="" style="group" parent="1" vertex="1" connectable="0">
          <mxGeometry x="1280" y="10" width="330" height="350" as="geometry" />
        </mxCell>
        <mxCell id="8BeYVjmtPHPCA1mixDrs-2" value="TOKEN" style="swimlane;fontStyle=0;childLayout=stackLayout;horizontal=1;startSize=30;horizontalStack=0;resizeParent=1;resizeParentMax=0;resizeLast=0;collapsible=1;marginBottom=0;whiteSpace=wrap;html=1;" parent="8BeYVjmtPHPCA1mixDrs-1" vertex="1">
          <mxGeometry width="140" height="240" as="geometry" />
        </mxCell>
        <mxCell id="8BeYVjmtPHPCA1mixDrs-3" value="CMD" style="text;strokeColor=none;fillColor=none;align=left;verticalAlign=middle;spacingLeft=4;spacingRight=4;overflow=hidden;points=[[0,0.5],[1,0.5]];portConstraint=eastwest;rotatable=0;whiteSpace=wrap;html=1;" parent="8BeYVjmtPHPCA1mixDrs-2" vertex="1">
          <mxGeometry y="30" width="140" height="30" as="geometry" />
        </mxCell>
        <mxCell id="8BeYVjmtPHPCA1mixDrs-4" value="REDIRECTS" style="text;strokeColor=none;fillColor=none;align=left;verticalAlign=middle;spacingLeft=4;spacingRight=4;overflow=hidden;points=[[0,0.5],[1,0.5]];portConstraint=eastwest;rotatable=0;whiteSpace=wrap;html=1;" parent="8BeYVjmtPHPCA1mixDrs-2" vertex="1">
          <mxGeometry y="60" width="140" height="30" as="geometry" />
        </mxCell>
        <mxCell id="8BeYVjmtPHPCA1mixDrs-5" value="SEPARATOR" style="text;strokeColor=none;fillColor=none;align=left;verticalAlign=middle;spacingLeft=4;spacingRight=4;overflow=hidden;points=[[0,0.5],[1,0.5]];portConstraint=eastwest;rotatable=0;whiteSpace=wrap;html=1;" parent="8BeYVjmtPHPCA1mixDrs-2" vertex="1">
          <mxGeometry y="90" width="140" height="30" as="geometry" />
        </mxCell>
        <mxCell id="2njiMpUYQDJb2ewS4S_D-3" value="PARENTHESIS" style="text;strokeColor=none;fillColor=none;align=left;verticalAlign=middle;spacingLeft=4;spacingRight=4;overflow=hidden;points=[[0,0.5],[1,0.5]];portConstraint=eastwest;rotatable=0;whiteSpace=wrap;html=1;" parent="8BeYVjmtPHPCA1mixDrs-2" vertex="1">
          <mxGeometry y="120" width="140" height="30" as="geometry" />
        </mxCell>
        <mxCell id="8BeYVjmtPHPCA1mixDrs-6" value="SIMPLE_CMD" style="text;strokeColor=none;fillColor=none;align=left;verticalAlign=middle;spacingLeft=4;spacingRight=4;overflow=hidden;points=[[0,0.5],[1,0.5]];portConstraint=eastwest;rotatable=0;whiteSpace=wrap;html=1;" parent="8BeYVjmtPHPCA1mixDrs-2" vertex="1">
          <mxGeometry y="150" width="140" height="30" as="geometry" />
        </mxCell>
        <mxCell id="8BeYVjmtPHPCA1mixDrs-7" value="FILE" style="text;strokeColor=none;fillColor=none;align=left;verticalAlign=middle;spacingLeft=4;spacingRight=4;overflow=hidden;points=[[0,0.5],[1,0.5]];portConstraint=eastwest;rotatable=0;whiteSpace=wrap;html=1;" parent="8BeYVjmtPHPCA1mixDrs-2" vertex="1">
          <mxGeometry y="180" width="140" height="30" as="geometry" />
        </mxCell>
        <mxCell id="t7_08N7VjbIVLppn66wN-1" value="WORD" style="text;strokeColor=none;fillColor=none;align=left;verticalAlign=middle;spacingLeft=4;spacingRight=4;overflow=hidden;points=[[0,0.5],[1,0.5]];portConstraint=eastwest;rotatable=0;whiteSpace=wrap;html=1;" parent="8BeYVjmtPHPCA1mixDrs-2" vertex="1">
          <mxGeometry y="210" width="140" height="30" as="geometry" />
        </mxCell>
        <mxCell id="8BeYVjmtPHPCA1mixDrs-8" style="edgeStyle=orthogonalEdgeStyle;rounded=0;orthogonalLoop=1;jettySize=auto;html=1;entryX=0;entryY=0.114;entryDx=0;entryDy=0;entryPerimeter=0;" parent="8BeYVjmtPHPCA1mixDrs-1" target="8BeYVjmtPHPCA1mixDrs-16" edge="1">
          <mxGeometry relative="1" as="geometry">
            <mxPoint x="180" y="27.470588235294144" as="targetPoint" />
            <mxPoint x="140" y="45.000000000000114" as="sourcePoint" />
            <Array as="points">
              <mxPoint x="160" y="45" />
              <mxPoint x="160" y="17" />
            </Array>
          </mxGeometry>
        </mxCell>
        <mxCell id="8BeYVjmtPHPCA1mixDrs-9" style="edgeStyle=orthogonalEdgeStyle;rounded=0;orthogonalLoop=1;jettySize=auto;html=1;entryX=0.009;entryY=0.079;entryDx=0;entryDy=0;entryPerimeter=0;" parent="8BeYVjmtPHPCA1mixDrs-1" target="8BeYVjmtPHPCA1mixDrs-10" edge="1">
          <mxGeometry relative="1" as="geometry">
            <mxPoint x="220" y="87.47058823529414" as="targetPoint" />
            <mxPoint x="140" y="75.00000000000011" as="sourcePoint" />
            <Array as="points">
              <mxPoint x="160" y="75" />
              <mxPoint x="160" y="184" />
            </Array>
          </mxGeometry>
        </mxCell>
        <mxCell id="8BeYVjmtPHPCA1mixDrs-10" value="SEPARATOR" style="swimlane;fontStyle=0;childLayout=stackLayout;horizontal=1;startSize=30;horizontalStack=0;resizeParent=1;resizeParentMax=0;resizeLast=0;collapsible=1;marginBottom=0;whiteSpace=wrap;html=1;" parent="8BeYVjmtPHPCA1mixDrs-1" vertex="1">
          <mxGeometry x="190" y="170" width="140" height="180" as="geometry" />
        </mxCell>
        <mxCell id="8BeYVjmtPHPCA1mixDrs-11" value="PIPE" style="text;strokeColor=none;fillColor=none;align=left;verticalAlign=middle;spacingLeft=4;spacingRight=4;overflow=hidden;points=[[0,0.5],[1,0.5]];portConstraint=eastwest;rotatable=0;whiteSpace=wrap;html=1;" parent="8BeYVjmtPHPCA1mixDrs-10" vertex="1">
          <mxGeometry y="30" width="140" height="30" as="geometry" />
        </mxCell>
        <mxCell id="8BeYVjmtPHPCA1mixDrs-12" value="&amp;amp;" style="text;strokeColor=none;fillColor=none;align=left;verticalAlign=middle;spacingLeft=4;spacingRight=4;overflow=hidden;points=[[0,0.5],[1,0.5]];portConstraint=eastwest;rotatable=0;whiteSpace=wrap;html=1;" parent="8BeYVjmtPHPCA1mixDrs-10" vertex="1">
          <mxGeometry y="60" width="140" height="30" as="geometry" />
        </mxCell>
        <mxCell id="8BeYVjmtPHPCA1mixDrs-13" value="&amp;amp;&amp;amp;" style="text;strokeColor=none;fillColor=none;align=left;verticalAlign=middle;spacingLeft=4;spacingRight=4;overflow=hidden;points=[[0,0.5],[1,0.5]];portConstraint=eastwest;rotatable=0;whiteSpace=wrap;html=1;" parent="8BeYVjmtPHPCA1mixDrs-10" vertex="1">
          <mxGeometry y="90" width="140" height="30" as="geometry" />
        </mxCell>
        <mxCell id="8BeYVjmtPHPCA1mixDrs-14" value="||" style="text;strokeColor=none;fillColor=none;align=left;verticalAlign=middle;spacingLeft=4;spacingRight=4;overflow=hidden;points=[[0,0.5],[1,0.5]];portConstraint=eastwest;rotatable=0;whiteSpace=wrap;html=1;" parent="8BeYVjmtPHPCA1mixDrs-10" vertex="1">
          <mxGeometry y="120" width="140" height="30" as="geometry" />
        </mxCell>
        <mxCell id="8BeYVjmtPHPCA1mixDrs-15" value=";" style="text;strokeColor=none;fillColor=none;align=left;verticalAlign=middle;spacingLeft=4;spacingRight=4;overflow=hidden;points=[[0,0.5],[1,0.5]];portConstraint=eastwest;rotatable=0;whiteSpace=wrap;html=1;" parent="8BeYVjmtPHPCA1mixDrs-10" vertex="1">
          <mxGeometry y="150" width="140" height="30" as="geometry" />
        </mxCell>
        <mxCell id="8BeYVjmtPHPCA1mixDrs-16" value="REDIRECTS" style="swimlane;fontStyle=0;childLayout=stackLayout;horizontal=1;startSize=30;horizontalStack=0;resizeParent=1;resizeParentMax=0;resizeLast=0;collapsible=1;marginBottom=0;whiteSpace=wrap;html=1;" parent="8BeYVjmtPHPCA1mixDrs-1" vertex="1">
          <mxGeometry x="190" width="140" height="150" as="geometry" />
        </mxCell>
        <mxCell id="8BeYVjmtPHPCA1mixDrs-17" value="&amp;lt;" style="text;strokeColor=none;fillColor=none;align=left;verticalAlign=middle;spacingLeft=4;spacingRight=4;overflow=hidden;points=[[0,0.5],[1,0.5]];portConstraint=eastwest;rotatable=0;whiteSpace=wrap;html=1;" parent="8BeYVjmtPHPCA1mixDrs-16" vertex="1">
          <mxGeometry y="30" width="140" height="30" as="geometry" />
        </mxCell>
        <mxCell id="8BeYVjmtPHPCA1mixDrs-18" value="&amp;lt;&amp;lt;" style="text;strokeColor=none;fillColor=none;align=left;verticalAlign=middle;spacingLeft=4;spacingRight=4;overflow=hidden;points=[[0,0.5],[1,0.5]];portConstraint=eastwest;rotatable=0;whiteSpace=wrap;html=1;" parent="8BeYVjmtPHPCA1mixDrs-16" vertex="1">
          <mxGeometry y="60" width="140" height="30" as="geometry" />
        </mxCell>
        <mxCell id="8BeYVjmtPHPCA1mixDrs-19" value="&amp;gt;" style="text;strokeColor=none;fillColor=none;align=left;verticalAlign=middle;spacingLeft=4;spacingRight=4;overflow=hidden;points=[[0,0.5],[1,0.5]];portConstraint=eastwest;rotatable=0;whiteSpace=wrap;html=1;" parent="8BeYVjmtPHPCA1mixDrs-16" vertex="1">
          <mxGeometry y="90" width="140" height="30" as="geometry" />
        </mxCell>
        <mxCell id="8BeYVjmtPHPCA1mixDrs-20" value="&amp;gt;&amp;gt;" style="text;strokeColor=none;fillColor=none;align=left;verticalAlign=middle;spacingLeft=4;spacingRight=4;overflow=hidden;points=[[0,0.5],[1,0.5]];portConstraint=eastwest;rotatable=0;whiteSpace=wrap;html=1;" parent="8BeYVjmtPHPCA1mixDrs-16" vertex="1">
          <mxGeometry y="120" width="140" height="30" as="geometry" />
        </mxCell>
        <UserObject label="S&#xa;(cat file1.txt || echo &quot;file1 missing&quot; &gt; log.txt) &amp;&amp; (grep &quot;pattern&quot; file2.txt | sort &gt; output.txt) || (echo &quot;fallback&quot; &gt;&gt; error.log &amp;&amp; ls -l)&#xa;-&gt; PARENTHESIS &amp;&amp; PARENTHESIS || PARENTHESIS" id="8BeYVjmtPHPCA1mixDrs-25">
          <mxCell style="text;whiteSpace=wrap;fontStyle=0;align=center;" parent="1" vertex="1">
            <mxGeometry x="200" y="130" width="680" height="50" as="geometry" />
          </mxCell>
        </UserObject>
        <mxCell id="XXwMzzULHA0IYsp_AHKc-1" value="AND" style="ellipse;whiteSpace=wrap;html=1;aspect=fixed;movable=1;resizable=1;rotatable=1;deletable=1;editable=1;locked=0;connectable=1;fontStyle=0;fillColor=#ffe6cc;strokeColor=#d79b00;" parent="1" vertex="1">
          <mxGeometry x="520" y="180" width="40" height="40" as="geometry" />
        </mxCell>
        <mxCell id="XXwMzzULHA0IYsp_AHKc-2" value="" style="endArrow=none;html=1;rounded=0;entryX=0;entryY=1;entryDx=0;entryDy=0;exitX=0.5;exitY=0;exitDx=0;exitDy=0;" parent="1" source="2njiMpUYQDJb2ewS4S_D-1" target="XXwMzzULHA0IYsp_AHKc-1" edge="1">
          <mxGeometry width="50" height="50" relative="1" as="geometry">
            <mxPoint x="430" y="260" as="sourcePoint" />
            <mxPoint x="620" y="380" as="targetPoint" />
          </mxGeometry>
        </mxCell>
        <mxCell id="XXwMzzULHA0IYsp_AHKc-3" value="" style="endArrow=none;html=1;rounded=0;entryX=1;entryY=1;entryDx=0;entryDy=0;exitX=0.5;exitY=0;exitDx=0;exitDy=0;" parent="1" source="2njiMpUYQDJb2ewS4S_D-2" target="XXwMzzULHA0IYsp_AHKc-1" edge="1">
          <mxGeometry width="50" height="50" relative="1" as="geometry">
            <mxPoint x="650" y="260" as="sourcePoint" />
            <mxPoint x="600" y="230" as="targetPoint" />
          </mxGeometry>
        </mxCell>
        <mxCell id="2njiMpUYQDJb2ewS4S_D-1" value="PARENTHESIS&lt;br&gt;(cat file1.txt || echo &quot;file1 missing&quot; &amp;gt; log.txt)" style="rounded=1;whiteSpace=wrap;html=1;" parent="1" vertex="1">
          <mxGeometry x="170" y="260" width="240" height="40" as="geometry" />
        </mxCell>
        <mxCell id="2njiMpUYQDJb2ewS4S_D-2" value="CMDS&lt;br&gt;(grep &quot;pattern&quot; file2.txt | sort &amp;gt; output.txt) || (echo &quot;fallback&quot; &amp;gt;&amp;gt; error.log &amp;amp;&amp;amp; ls -l)" style="rounded=1;whiteSpace=wrap;html=1;" parent="1" vertex="1">
          <mxGeometry x="710" y="260" width="440" height="40" as="geometry" />
        </mxCell>
        <mxCell id="2njiMpUYQDJb2ewS4S_D-6" value="OR" style="ellipse;whiteSpace=wrap;html=1;aspect=fixed;fillColor=#ffe6cc;strokeColor=#d79b00;" parent="1" vertex="1">
          <mxGeometry x="270" y="310" width="40" height="40" as="geometry" />
        </mxCell>
        <mxCell id="2njiMpUYQDJb2ewS4S_D-7" value="CMD" style="ellipse;whiteSpace=wrap;html=1;aspect=fixed;" parent="1" vertex="1">
          <mxGeometry x="370" y="390" width="40" height="40" as="geometry" />
        </mxCell>
        <mxCell id="2njiMpUYQDJb2ewS4S_D-9" value="" style="endArrow=none;html=1;rounded=0;entryX=0.5;entryY=1;entryDx=0;entryDy=0;exitX=0.5;exitY=0;exitDx=0;exitDy=0;" parent="1" source="2njiMpUYQDJb2ewS4S_D-6" target="2njiMpUYQDJb2ewS4S_D-1" edge="1">
          <mxGeometry width="50" height="50" relative="1" as="geometry">
            <mxPoint x="300" y="270" as="sourcePoint" />
            <mxPoint x="546" y="224" as="targetPoint" />
          </mxGeometry>
        </mxCell>
        <mxCell id="2njiMpUYQDJb2ewS4S_D-10" value="" style="endArrow=none;html=1;rounded=0;entryX=0;entryY=1;entryDx=0;entryDy=0;exitX=1;exitY=0;exitDx=0;exitDy=0;" parent="1" source="2njiMpUYQDJb2ewS4S_D-12" target="2njiMpUYQDJb2ewS4S_D-6" edge="1">
          <mxGeometry width="50" height="50" relative="1" as="geometry">
            <mxPoint x="195" y="400" as="sourcePoint" />
            <mxPoint x="546" y="224" as="targetPoint" />
          </mxGeometry>
        </mxCell>
        <mxCell id="2njiMpUYQDJb2ewS4S_D-11" value="" style="endArrow=none;html=1;rounded=0;entryX=1;entryY=1;entryDx=0;entryDy=0;exitX=0;exitY=0;exitDx=0;exitDy=0;" parent="1" source="2njiMpUYQDJb2ewS4S_D-7" target="2njiMpUYQDJb2ewS4S_D-6" edge="1">
          <mxGeometry width="50" height="50" relative="1" as="geometry">
            <mxPoint x="205" y="410" as="sourcePoint" />
            <mxPoint x="286" y="354" as="targetPoint" />
          </mxGeometry>
        </mxCell>
        <mxCell id="2njiMpUYQDJb2ewS4S_D-12" value="CMD" style="ellipse;whiteSpace=wrap;html=1;aspect=fixed;" parent="1" vertex="1">
          <mxGeometry x="130" y="390" width="40" height="40" as="geometry" />
        </mxCell>
        <mxCell id="2njiMpUYQDJb2ewS4S_D-13" value="SIMPLE_CMD&lt;br&gt;( cat )" style="rounded=1;whiteSpace=wrap;html=1;fillColor=#f8cecc;strokeColor=#b85450;" parent="1" vertex="1">
          <mxGeometry x="20" y="470" width="90" height="40" as="geometry" />
        </mxCell>
        <mxCell id="Fqjar2VkN2sJwDybC3ud-2" value="OUT" style="ellipse;whiteSpace=wrap;html=1;aspect=fixed;" parent="1" vertex="1">
          <mxGeometry x="270" y="470" width="40" height="40" as="geometry" />
        </mxCell>
        <mxCell id="Fqjar2VkN2sJwDybC3ud-3" value="REDIRECTION&lt;div&gt;( &amp;gt; )&lt;/div&gt;" style="rounded=1;whiteSpace=wrap;html=1;fillColor=#d5e8d4;strokeColor=#82b366;" parent="1" vertex="1">
          <mxGeometry x="190" y="550" width="90" height="40" as="geometry" />
        </mxCell>
        <mxCell id="Fqjar2VkN2sJwDybC3ud-4" value="FILE&lt;br&gt;( log.txt )" style="rounded=1;whiteSpace=wrap;html=1;fillColor=#f5f5f5;strokeColor=#666666;fontColor=#333333;" parent="1" vertex="1">
          <mxGeometry x="300" y="550" width="90" height="40" as="geometry" />
        </mxCell>
        <mxCell id="Fqjar2VkN2sJwDybC3ud-5" value="FILE&lt;br&gt;( file1.txt )" style="rounded=1;whiteSpace=wrap;html=1;fillColor=#f5f5f5;strokeColor=#666666;fontColor=#333333;" parent="1" vertex="1">
          <mxGeometry x="130" y="470" width="90" height="40" as="geometry" />
        </mxCell>
        <mxCell id="Fqjar2VkN2sJwDybC3ud-8" value="SIMPLE_CMD&lt;br&gt;( echo &quot;file1 missing&quot; )" style="rounded=1;whiteSpace=wrap;html=1;fillColor=#f8cecc;strokeColor=#b85450;" parent="1" vertex="1">
          <mxGeometry x="400" y="470" width="130" height="40" as="geometry" />
        </mxCell>
        <mxCell id="Fqjar2VkN2sJwDybC3ud-10" value="" style="endArrow=none;html=1;rounded=0;entryX=0;entryY=1;entryDx=0;entryDy=0;exitX=0.5;exitY=0;exitDx=0;exitDy=0;" parent="1" source="2njiMpUYQDJb2ewS4S_D-13" target="2njiMpUYQDJb2ewS4S_D-12" edge="1">
          <mxGeometry width="50" height="50" relative="1" as="geometry">
            <mxPoint x="174" y="406" as="sourcePoint" />
            <mxPoint x="286" y="354" as="targetPoint" />
          </mxGeometry>
        </mxCell>
        <mxCell id="Fqjar2VkN2sJwDybC3ud-11" value="" style="endArrow=none;html=1;rounded=0;entryX=1;entryY=1;entryDx=0;entryDy=0;exitX=0.5;exitY=0;exitDx=0;exitDy=0;" parent="1" source="Fqjar2VkN2sJwDybC3ud-5" target="2njiMpUYQDJb2ewS4S_D-12" edge="1">
          <mxGeometry width="50" height="50" relative="1" as="geometry">
            <mxPoint x="75" y="480" as="sourcePoint" />
            <mxPoint x="146" y="434" as="targetPoint" />
          </mxGeometry>
        </mxCell>
        <mxCell id="Fqjar2VkN2sJwDybC3ud-12" value="" style="endArrow=none;html=1;rounded=0;entryX=0;entryY=1;entryDx=0;entryDy=0;exitX=1;exitY=0;exitDx=0;exitDy=0;" parent="1" source="Fqjar2VkN2sJwDybC3ud-2" target="2njiMpUYQDJb2ewS4S_D-7" edge="1">
          <mxGeometry width="50" height="50" relative="1" as="geometry">
            <mxPoint x="426" y="405" as="sourcePoint" />
            <mxPoint x="314" y="354" as="targetPoint" />
          </mxGeometry>
        </mxCell>
        <mxCell id="Fqjar2VkN2sJwDybC3ud-13" value="" style="endArrow=none;html=1;rounded=0;entryX=0.5;entryY=0;entryDx=0;entryDy=0;exitX=0;exitY=1;exitDx=0;exitDy=0;" parent="1" source="Fqjar2VkN2sJwDybC3ud-2" target="Fqjar2VkN2sJwDybC3ud-3" edge="1">
          <mxGeometry width="50" height="50" relative="1" as="geometry">
            <mxPoint x="314" y="486" as="sourcePoint" />
            <mxPoint x="426" y="435" as="targetPoint" />
          </mxGeometry>
        </mxCell>
        <mxCell id="Fqjar2VkN2sJwDybC3ud-14" value="" style="endArrow=none;html=1;rounded=0;entryX=0.5;entryY=0;entryDx=0;entryDy=0;exitX=1;exitY=1;exitDx=0;exitDy=0;" parent="1" source="Fqjar2VkN2sJwDybC3ud-2" target="Fqjar2VkN2sJwDybC3ud-4" edge="1">
          <mxGeometry width="50" height="50" relative="1" as="geometry">
            <mxPoint x="286" y="514" as="sourcePoint" />
            <mxPoint x="268" y="560" as="targetPoint" />
          </mxGeometry>
        </mxCell>
        <mxCell id="Fqjar2VkN2sJwDybC3ud-15" value="" style="endArrow=none;html=1;rounded=0;entryX=1;entryY=1;entryDx=0;entryDy=0;exitX=0.5;exitY=0;exitDx=0;exitDy=0;" parent="1" source="Fqjar2VkN2sJwDybC3ud-8" target="2njiMpUYQDJb2ewS4S_D-7" edge="1">
          <mxGeometry width="50" height="50" relative="1" as="geometry">
            <mxPoint x="495.8578643763044" y="475.85786437630463" as="sourcePoint" />
            <mxPoint x="386" y="434" as="targetPoint" />
          </mxGeometry>
        </mxCell>
        <mxCell id="Fqjar2VkN2sJwDybC3ud-19" value="OR" style="ellipse;whiteSpace=wrap;html=1;aspect=fixed;fillColor=#ffe6cc;strokeColor=#d79b00;" parent="1" vertex="1">
          <mxGeometry x="910" y="310" width="40" height="40" as="geometry" />
        </mxCell>
        <mxCell id="Fqjar2VkN2sJwDybC3ud-21" value="" style="endArrow=none;html=1;rounded=0;entryX=0.5;entryY=1;entryDx=0;entryDy=0;exitX=0.5;exitY=0;exitDx=0;exitDy=0;" parent="1" source="Fqjar2VkN2sJwDybC3ud-19" target="2njiMpUYQDJb2ewS4S_D-2" edge="1">
          <mxGeometry width="50" height="50" relative="1" as="geometry">
            <mxPoint x="955" y="280" as="sourcePoint" />
            <mxPoint x="945" y="310" as="targetPoint" />
          </mxGeometry>
        </mxCell>
        <mxCell id="Fqjar2VkN2sJwDybC3ud-38" value="PARENTHESIS&lt;br&gt;(grep &quot;pattern&quot; file2.txt | sort &amp;gt; output.txt)" style="rounded=1;whiteSpace=wrap;html=1;" parent="1" vertex="1">
          <mxGeometry x="680" y="390" width="240" height="40" as="geometry" />
        </mxCell>
        <mxCell id="Fqjar2VkN2sJwDybC3ud-39" value="PARENTHESIS&lt;br&gt;( echo &quot;fallback&quot; &amp;gt;&amp;gt; error.log &amp;amp;&amp;amp; ls -l )" style="rounded=1;whiteSpace=wrap;html=1;" parent="1" vertex="1">
          <mxGeometry x="1238" y="390" width="240" height="40" as="geometry" />
        </mxCell>
        <mxCell id="Fqjar2VkN2sJwDybC3ud-40" value="" style="endArrow=none;html=1;rounded=0;entryX=0;entryY=1;entryDx=0;entryDy=0;exitX=0.5;exitY=0;exitDx=0;exitDy=0;" parent="1" source="Fqjar2VkN2sJwDybC3ud-38" target="Fqjar2VkN2sJwDybC3ud-19" edge="1">
          <mxGeometry width="50" height="50" relative="1" as="geometry">
            <mxPoint x="296" y="406" as="sourcePoint" />
            <mxPoint x="224" y="354" as="targetPoint" />
          </mxGeometry>
        </mxCell>
        <mxCell id="Fqjar2VkN2sJwDybC3ud-41" value="" style="endArrow=none;html=1;rounded=0;entryX=1;entryY=1;entryDx=0;entryDy=0;exitX=0.5;exitY=0;exitDx=0;exitDy=0;" parent="1" source="Fqjar2VkN2sJwDybC3ud-39" target="Fqjar2VkN2sJwDybC3ud-19" edge="1">
          <mxGeometry width="50" height="50" relative="1" as="geometry">
            <mxPoint x="720" y="400" as="sourcePoint" />
            <mxPoint x="926" y="354" as="targetPoint" />
          </mxGeometry>
        </mxCell>
        <mxCell id="Fqjar2VkN2sJwDybC3ud-42" value="PIPE" style="ellipse;whiteSpace=wrap;html=1;aspect=fixed;fillColor=#ffe6cc;strokeColor=#d79b00;" parent="1" vertex="1">
          <mxGeometry x="780" y="440" width="40" height="40" as="geometry" />
        </mxCell>
        <mxCell id="Fqjar2VkN2sJwDybC3ud-43" value="" style="endArrow=none;html=1;rounded=0;entryX=0.5;entryY=1;entryDx=0;entryDy=0;exitX=0.5;exitY=0;exitDx=0;exitDy=0;" parent="1" source="Fqjar2VkN2sJwDybC3ud-42" target="Fqjar2VkN2sJwDybC3ud-38" edge="1">
          <mxGeometry width="50" height="50" relative="1" as="geometry">
            <mxPoint x="820" y="400" as="sourcePoint" />
            <mxPoint x="926" y="354" as="targetPoint" />
          </mxGeometry>
        </mxCell>
        <mxCell id="Fqjar2VkN2sJwDybC3ud-44" value="CMD" style="ellipse;whiteSpace=wrap;html=1;aspect=fixed;" parent="1" vertex="1">
          <mxGeometry x="660" y="500" width="40" height="40" as="geometry" />
        </mxCell>
        <mxCell id="Fqjar2VkN2sJwDybC3ud-45" value="CMD" style="ellipse;whiteSpace=wrap;html=1;aspect=fixed;" parent="1" vertex="1">
          <mxGeometry x="900" y="500" width="40" height="40" as="geometry" />
        </mxCell>
        <mxCell id="Fqjar2VkN2sJwDybC3ud-46" value="" style="endArrow=none;html=1;rounded=0;entryX=0;entryY=1;entryDx=0;entryDy=0;exitX=1;exitY=0;exitDx=0;exitDy=0;" parent="1" source="Fqjar2VkN2sJwDybC3ud-44" target="Fqjar2VkN2sJwDybC3ud-42" edge="1">
          <mxGeometry width="50" height="50" relative="1" as="geometry">
            <mxPoint x="820" y="400" as="sourcePoint" />
            <mxPoint x="926" y="354" as="targetPoint" />
          </mxGeometry>
        </mxCell>
        <mxCell id="Fqjar2VkN2sJwDybC3ud-47" value="" style="endArrow=none;html=1;rounded=0;entryX=1;entryY=1;entryDx=0;entryDy=0;exitX=0;exitY=0;exitDx=0;exitDy=0;" parent="1" source="Fqjar2VkN2sJwDybC3ud-45" target="Fqjar2VkN2sJwDybC3ud-42" edge="1">
          <mxGeometry width="50" height="50" relative="1" as="geometry">
            <mxPoint x="714" y="516" as="sourcePoint" />
            <mxPoint x="806" y="484" as="targetPoint" />
          </mxGeometry>
        </mxCell>
        <mxCell id="Fqjar2VkN2sJwDybC3ud-49" value="SIMPLE_CMD&lt;br&gt;( grep &quot;pattern&quot; )" style="rounded=1;whiteSpace=wrap;html=1;fillColor=#f8cecc;strokeColor=#b85450;" parent="1" vertex="1">
          <mxGeometry x="540" y="574" width="130" height="40" as="geometry" />
        </mxCell>
        <mxCell id="Fqjar2VkN2sJwDybC3ud-50" value="FILE&lt;br&gt;( file2.txt )" style="rounded=1;whiteSpace=wrap;html=1;fillColor=#f5f5f5;fontColor=#333333;strokeColor=#666666;" parent="1" vertex="1">
          <mxGeometry x="690" y="574" width="90" height="40" as="geometry" />
        </mxCell>
        <mxCell id="Fqjar2VkN2sJwDybC3ud-51" value="" style="endArrow=none;html=1;rounded=0;entryX=0;entryY=1;entryDx=0;entryDy=0;exitX=0.5;exitY=0.016;exitDx=0;exitDy=0;exitPerimeter=0;" parent="1" source="Fqjar2VkN2sJwDybC3ud-49" target="Fqjar2VkN2sJwDybC3ud-44" edge="1">
          <mxGeometry width="50" height="50" relative="1" as="geometry">
            <mxPoint x="704" y="516" as="sourcePoint" />
            <mxPoint x="796" y="484" as="targetPoint" />
          </mxGeometry>
        </mxCell>
        <mxCell id="Fqjar2VkN2sJwDybC3ud-52" value="" style="endArrow=none;html=1;rounded=0;entryX=1;entryY=1;entryDx=0;entryDy=0;exitX=0.5;exitY=0;exitDx=0;exitDy=0;" parent="1" source="Fqjar2VkN2sJwDybC3ud-50" target="Fqjar2VkN2sJwDybC3ud-44" edge="1">
          <mxGeometry width="50" height="50" relative="1" as="geometry">
            <mxPoint x="615" y="571" as="sourcePoint" />
            <mxPoint x="676" y="544" as="targetPoint" />
          </mxGeometry>
        </mxCell>
        <mxCell id="Fqjar2VkN2sJwDybC3ud-53" value="OUT" style="ellipse;whiteSpace=wrap;html=1;aspect=fixed;" parent="1" vertex="1">
          <mxGeometry x="860" y="574" width="40" height="40" as="geometry" />
        </mxCell>
        <mxCell id="Fqjar2VkN2sJwDybC3ud-54" value="REDIRECTION&lt;div&gt;( &amp;gt; )&lt;/div&gt;" style="rounded=1;whiteSpace=wrap;html=1;fillColor=#d5e8d4;strokeColor=#82b366;" parent="1" vertex="1">
          <mxGeometry x="780" y="654" width="90" height="40" as="geometry" />
        </mxCell>
        <mxCell id="Fqjar2VkN2sJwDybC3ud-55" value="FILE&lt;br&gt;( output.txt )" style="rounded=1;whiteSpace=wrap;html=1;fillColor=#f5f5f5;fontColor=#333333;strokeColor=#666666;" parent="1" vertex="1">
          <mxGeometry x="890" y="654" width="90" height="40" as="geometry" />
        </mxCell>
        <mxCell id="Fqjar2VkN2sJwDybC3ud-56" value="" style="endArrow=none;html=1;rounded=0;entryX=0.5;entryY=0;entryDx=0;entryDy=0;exitX=0;exitY=1;exitDx=0;exitDy=0;" parent="1" source="Fqjar2VkN2sJwDybC3ud-53" target="Fqjar2VkN2sJwDybC3ud-54" edge="1">
          <mxGeometry width="50" height="50" relative="1" as="geometry">
            <mxPoint x="904" y="590" as="sourcePoint" />
            <mxPoint x="1016" y="539" as="targetPoint" />
          </mxGeometry>
        </mxCell>
        <mxCell id="Fqjar2VkN2sJwDybC3ud-57" value="" style="endArrow=none;html=1;rounded=0;entryX=0.5;entryY=0;entryDx=0;entryDy=0;exitX=1;exitY=1;exitDx=0;exitDy=0;" parent="1" source="Fqjar2VkN2sJwDybC3ud-53" target="Fqjar2VkN2sJwDybC3ud-55" edge="1">
          <mxGeometry width="50" height="50" relative="1" as="geometry">
            <mxPoint x="876" y="618" as="sourcePoint" />
            <mxPoint x="858" y="664" as="targetPoint" />
          </mxGeometry>
        </mxCell>
        <mxCell id="Fqjar2VkN2sJwDybC3ud-58" value="" style="endArrow=none;html=1;rounded=0;entryX=0.5;entryY=0;entryDx=0;entryDy=0;exitX=0;exitY=1;exitDx=0;exitDy=0;" parent="1" source="Fqjar2VkN2sJwDybC3ud-45" target="Fqjar2VkN2sJwDybC3ud-53" edge="1">
          <mxGeometry width="50" height="50" relative="1" as="geometry">
            <mxPoint x="916" y="516" as="sourcePoint" />
            <mxPoint x="824" y="484" as="targetPoint" />
          </mxGeometry>
        </mxCell>
        <mxCell id="Fqjar2VkN2sJwDybC3ud-59" value="SIMPLE_CMD&lt;br&gt;( sort )" style="rounded=1;whiteSpace=wrap;html=1;fillColor=#f8cecc;strokeColor=#b85450;" parent="1" vertex="1">
          <mxGeometry x="950" y="574" width="130" height="40" as="geometry" />
        </mxCell>
        <mxCell id="Fqjar2VkN2sJwDybC3ud-60" value="" style="endArrow=none;html=1;rounded=0;entryX=0.5;entryY=0;entryDx=0;entryDy=0;exitX=1;exitY=1;exitDx=0;exitDy=0;" parent="1" source="Fqjar2VkN2sJwDybC3ud-45" target="Fqjar2VkN2sJwDybC3ud-59" edge="1">
          <mxGeometry width="50" height="50" relative="1" as="geometry">
            <mxPoint x="916" y="544" as="sourcePoint" />
            <mxPoint x="890" y="584" as="targetPoint" />
          </mxGeometry>
        </mxCell>
        <mxCell id="Fqjar2VkN2sJwDybC3ud-61" value="AND" style="ellipse;whiteSpace=wrap;html=1;aspect=fixed;fillColor=#ffe6cc;strokeColor=#d79b00;" parent="1" vertex="1">
          <mxGeometry x="1338" y="440" width="40" height="40" as="geometry" />
        </mxCell>
        <mxCell id="Fqjar2VkN2sJwDybC3ud-79" value="CMD" style="ellipse;whiteSpace=wrap;html=1;aspect=fixed;" parent="1" vertex="1">
          <mxGeometry x="1220" y="500" width="40" height="40" as="geometry" />
        </mxCell>
        <mxCell id="Fqjar2VkN2sJwDybC3ud-81" value="" style="endArrow=none;html=1;rounded=0;entryX=0;entryY=1;entryDx=0;entryDy=0;exitX=1;exitY=0;exitDx=0;exitDy=0;" parent="1" source="Fqjar2VkN2sJwDybC3ud-79" target="Fqjar2VkN2sJwDybC3ud-61" edge="1">
          <mxGeometry width="50" height="50" relative="1" as="geometry">
            <mxPoint x="1380" y="436" as="sourcePoint" />
            <mxPoint x="1346" y="510" as="targetPoint" />
          </mxGeometry>
        </mxCell>
        <mxCell id="Fqjar2VkN2sJwDybC3ud-82" value="" style="endArrow=none;html=1;rounded=0;entryX=1;entryY=1;entryDx=0;entryDy=0;exitX=0.5;exitY=0;exitDx=0;exitDy=0;" parent="1" source="Fqjar2VkN2sJwDybC3ud-113" target="Fqjar2VkN2sJwDybC3ud-61" edge="1">
          <mxGeometry width="50" height="50" relative="1" as="geometry">
            <mxPoint x="1465.8578643762685" y="505.85786437626894" as="sourcePoint" />
            <mxPoint x="1374" y="510" as="targetPoint" />
          </mxGeometry>
        </mxCell>
        <mxCell id="Fqjar2VkN2sJwDybC3ud-96" value="" style="endArrow=none;html=1;rounded=0;entryX=0.5;entryY=1;entryDx=0;entryDy=0;exitX=0.5;exitY=0;exitDx=0;exitDy=0;" parent="1" source="Fqjar2VkN2sJwDybC3ud-61" target="Fqjar2VkN2sJwDybC3ud-39" edge="1">
          <mxGeometry width="50" height="50" relative="1" as="geometry">
            <mxPoint x="1368" y="400" as="sourcePoint" />
            <mxPoint x="954" y="354" as="targetPoint" />
          </mxGeometry>
        </mxCell>
        <mxCell id="Fqjar2VkN2sJwDybC3ud-105" value="OUT" style="ellipse;whiteSpace=wrap;html=1;aspect=fixed;" parent="1" vertex="1">
          <mxGeometry x="1160" y="574" width="40" height="40" as="geometry" />
        </mxCell>
        <mxCell id="Fqjar2VkN2sJwDybC3ud-106" value="REDIRECTION&lt;div&gt;( &amp;gt;&amp;gt; )&lt;/div&gt;" style="rounded=1;whiteSpace=wrap;html=1;fillColor=#d5e8d4;strokeColor=#82b366;" parent="1" vertex="1">
          <mxGeometry x="1080" y="654" width="90" height="40" as="geometry" />
        </mxCell>
        <mxCell id="Fqjar2VkN2sJwDybC3ud-107" value="FILE&lt;br&gt;( error.log )" style="rounded=1;whiteSpace=wrap;html=1;fillColor=#f5f5f5;fontColor=#333333;strokeColor=#666666;" parent="1" vertex="1">
          <mxGeometry x="1190" y="654" width="90" height="40" as="geometry" />
        </mxCell>
        <mxCell id="Fqjar2VkN2sJwDybC3ud-108" value="" style="endArrow=none;html=1;rounded=0;entryX=0.5;entryY=0;entryDx=0;entryDy=0;exitX=0;exitY=1;exitDx=0;exitDy=0;" parent="1" source="Fqjar2VkN2sJwDybC3ud-105" target="Fqjar2VkN2sJwDybC3ud-106" edge="1">
          <mxGeometry width="50" height="50" relative="1" as="geometry">
            <mxPoint x="1204" y="590" as="sourcePoint" />
            <mxPoint x="1316" y="539" as="targetPoint" />
          </mxGeometry>
        </mxCell>
        <mxCell id="Fqjar2VkN2sJwDybC3ud-109" value="" style="endArrow=none;html=1;rounded=0;entryX=0.5;entryY=0;entryDx=0;entryDy=0;exitX=1;exitY=1;exitDx=0;exitDy=0;" parent="1" source="Fqjar2VkN2sJwDybC3ud-105" target="Fqjar2VkN2sJwDybC3ud-107" edge="1">
          <mxGeometry width="50" height="50" relative="1" as="geometry">
            <mxPoint x="1176" y="618" as="sourcePoint" />
            <mxPoint x="1158" y="664" as="targetPoint" />
          </mxGeometry>
        </mxCell>
        <mxCell id="Fqjar2VkN2sJwDybC3ud-110" value="" style="endArrow=none;html=1;rounded=0;entryX=0;entryY=1;entryDx=0;entryDy=0;exitX=0.5;exitY=0;exitDx=0;exitDy=0;" parent="1" source="Fqjar2VkN2sJwDybC3ud-105" target="Fqjar2VkN2sJwDybC3ud-79" edge="1">
          <mxGeometry width="50" height="50" relative="1" as="geometry">
            <mxPoint x="1264" y="516" as="sourcePoint" />
            <mxPoint x="1354" y="484" as="targetPoint" />
          </mxGeometry>
        </mxCell>
        <mxCell id="Fqjar2VkN2sJwDybC3ud-111" value="SIMPLE_CMD&lt;br&gt;( echo &quot;fallback&quot; )" style="rounded=1;whiteSpace=wrap;html=1;fillColor=#f8cecc;strokeColor=#b85450;" parent="1" vertex="1">
          <mxGeometry x="1270" y="574" width="130" height="40" as="geometry" />
        </mxCell>
        <mxCell id="Fqjar2VkN2sJwDybC3ud-112" value="" style="endArrow=none;html=1;rounded=0;entryX=1;entryY=1;entryDx=0;entryDy=0;exitX=0.5;exitY=0;exitDx=0;exitDy=0;" parent="1" source="Fqjar2VkN2sJwDybC3ud-111" target="Fqjar2VkN2sJwDybC3ud-79" edge="1">
          <mxGeometry width="50" height="50" relative="1" as="geometry">
            <mxPoint x="1190" y="584" as="sourcePoint" />
            <mxPoint x="1236" y="544" as="targetPoint" />
          </mxGeometry>
        </mxCell>
        <mxCell id="Fqjar2VkN2sJwDybC3ud-113" value="SIMPLE_CMD&lt;br&gt;( ls -l )" style="rounded=1;whiteSpace=wrap;html=1;fillColor=#f8cecc;strokeColor=#b85450;" parent="1" vertex="1">
          <mxGeometry x="1410" y="500" width="130" height="40" as="geometry" />
        </mxCell>
        <mxCell id="dZtQdhrJQKUOB-3Ht7j--1" value="&lt;h1 style=&quot;margin-top: 0px;&quot;&gt;전위 순회 탐색&lt;/h1&gt;&lt;div&gt;&lt;font style=&quot;font-size: 15px;&quot;&gt;밑으로 내려가면서 SEPARATOR를 만나면 해당 SEPARATOR에 맞는 처리&lt;/font&gt;&lt;/div&gt;&lt;div&gt;&lt;font style=&quot;font-size: 15px;&quot;&gt;해당 노드의 자식 노드가 없으면 해당 노드의 특성에 맞는 처리 시행&lt;/font&gt;&lt;/div&gt;" style="text;html=1;whiteSpace=wrap;overflow=hidden;rounded=0;" parent="1" vertex="1">
          <mxGeometry x="40" y="40" width="650" height="100" as="geometry" />
        </mxCell>
      </root>
    </mxGraphModel>
  </diagram>
  <diagram id="GIEFhdDA6ekQ9_NnOzKe" name="페이지-2">
    <mxGraphModel dx="1687" dy="887" grid="1" gridSize="10" guides="1" tooltips="1" connect="1" arrows="1" fold="1" page="1" pageScale="1" pageWidth="827" pageHeight="1169" math="0" shadow="0">
      <root>
        <mxCell id="0" />
        <mxCell id="1" parent="0" />
        <mxCell id="x_n3d_dvQ3i4Cio3I288-1" value="cat A &amp;amp;&amp;amp; cat B | ls -a -l &amp;amp;&amp;amp; (grep &quot;y&quot; C | sort &amp;gt; D)&lt;div&gt;cat A &amp;amp;&amp;amp; cat B | grep &quot;hello&quot; &amp;amp;&amp;amp; PARENTHESIS&lt;/div&gt;&lt;div&gt;CMD &amp;amp;&amp;amp; CMD | CMD &amp;amp;&amp;amp; PARENTHESIS&lt;/div&gt;&lt;div&gt;SIMPLE_CMD AND SIMPLE_CMD PIPE SIMPLE_CMD AND PARENTHESIS&lt;/div&gt;" style="text;whiteSpace=wrap;html=1;fontSize=15;" vertex="1" parent="1">
          <mxGeometry x="330" y="90" width="560" height="120" as="geometry" />
        </mxCell>
        <mxCell id="yLFPSr_b5FPqkhpt82XH-13" value="AND" style="ellipse;whiteSpace=wrap;html=1;aspect=fixed;movable=1;resizable=1;rotatable=1;deletable=1;editable=1;locked=0;connectable=1;fontStyle=0;fillColor=#ffe6cc;strokeColor=#d79b00;" vertex="1" parent="1">
          <mxGeometry x="520" y="180" width="40" height="40" as="geometry" />
        </mxCell>
        <mxCell id="yLFPSr_b5FPqkhpt82XH-14" value="" style="endArrow=none;html=1;rounded=0;entryX=0;entryY=1;entryDx=0;entryDy=0;exitX=0.5;exitY=0;exitDx=0;exitDy=0;" edge="1" parent="1" source="dWhKE6HjYdEJjCNjdTQ_-47" target="yLFPSr_b5FPqkhpt82XH-13">
          <mxGeometry width="50" height="50" relative="1" as="geometry">
            <mxPoint x="290" y="260" as="sourcePoint" />
            <mxPoint x="620" y="380" as="targetPoint" />
          </mxGeometry>
        </mxCell>
        <mxCell id="yLFPSr_b5FPqkhpt82XH-15" value="" style="endArrow=none;html=1;rounded=0;entryX=1;entryY=1;entryDx=0;entryDy=0;exitX=0.5;exitY=0;exitDx=0;exitDy=0;" edge="1" parent="1" source="dWhKE6HjYdEJjCNjdTQ_-48" target="yLFPSr_b5FPqkhpt82XH-13">
          <mxGeometry width="50" height="50" relative="1" as="geometry">
            <mxPoint x="930" y="260" as="sourcePoint" />
            <mxPoint x="600" y="230" as="targetPoint" />
          </mxGeometry>
        </mxCell>
        <mxCell id="dWhKE6HjYdEJjCNjdTQ_-23" value="" style="group" vertex="1" connectable="0" parent="1">
          <mxGeometry x="1290" y="20" width="330" height="350" as="geometry" />
        </mxCell>
        <mxCell id="dWhKE6HjYdEJjCNjdTQ_-24" value="TOKEN" style="swimlane;fontStyle=0;childLayout=stackLayout;horizontal=1;startSize=30;horizontalStack=0;resizeParent=1;resizeParentMax=0;resizeLast=0;collapsible=1;marginBottom=0;whiteSpace=wrap;html=1;" vertex="1" parent="dWhKE6HjYdEJjCNjdTQ_-23">
          <mxGeometry width="140" height="240" as="geometry" />
        </mxCell>
        <mxCell id="dWhKE6HjYdEJjCNjdTQ_-25" value="CMD" style="text;strokeColor=none;fillColor=none;align=left;verticalAlign=middle;spacingLeft=4;spacingRight=4;overflow=hidden;points=[[0,0.5],[1,0.5]];portConstraint=eastwest;rotatable=0;whiteSpace=wrap;html=1;" vertex="1" parent="dWhKE6HjYdEJjCNjdTQ_-24">
          <mxGeometry y="30" width="140" height="30" as="geometry" />
        </mxCell>
        <mxCell id="dWhKE6HjYdEJjCNjdTQ_-26" value="REDIRECTS" style="text;strokeColor=none;fillColor=none;align=left;verticalAlign=middle;spacingLeft=4;spacingRight=4;overflow=hidden;points=[[0,0.5],[1,0.5]];portConstraint=eastwest;rotatable=0;whiteSpace=wrap;html=1;" vertex="1" parent="dWhKE6HjYdEJjCNjdTQ_-24">
          <mxGeometry y="60" width="140" height="30" as="geometry" />
        </mxCell>
        <mxCell id="dWhKE6HjYdEJjCNjdTQ_-27" value="SEPARATOR" style="text;strokeColor=none;fillColor=none;align=left;verticalAlign=middle;spacingLeft=4;spacingRight=4;overflow=hidden;points=[[0,0.5],[1,0.5]];portConstraint=eastwest;rotatable=0;whiteSpace=wrap;html=1;" vertex="1" parent="dWhKE6HjYdEJjCNjdTQ_-24">
          <mxGeometry y="90" width="140" height="30" as="geometry" />
        </mxCell>
        <mxCell id="dWhKE6HjYdEJjCNjdTQ_-28" value="PARENTHESIS" style="text;strokeColor=none;fillColor=none;align=left;verticalAlign=middle;spacingLeft=4;spacingRight=4;overflow=hidden;points=[[0,0.5],[1,0.5]];portConstraint=eastwest;rotatable=0;whiteSpace=wrap;html=1;" vertex="1" parent="dWhKE6HjYdEJjCNjdTQ_-24">
          <mxGeometry y="120" width="140" height="30" as="geometry" />
        </mxCell>
        <mxCell id="dWhKE6HjYdEJjCNjdTQ_-29" value="SIMPLE_CMD" style="text;strokeColor=none;fillColor=none;align=left;verticalAlign=middle;spacingLeft=4;spacingRight=4;overflow=hidden;points=[[0,0.5],[1,0.5]];portConstraint=eastwest;rotatable=0;whiteSpace=wrap;html=1;" vertex="1" parent="dWhKE6HjYdEJjCNjdTQ_-24">
          <mxGeometry y="150" width="140" height="30" as="geometry" />
        </mxCell>
        <mxCell id="dWhKE6HjYdEJjCNjdTQ_-30" value="FILE" style="text;strokeColor=none;fillColor=none;align=left;verticalAlign=middle;spacingLeft=4;spacingRight=4;overflow=hidden;points=[[0,0.5],[1,0.5]];portConstraint=eastwest;rotatable=0;whiteSpace=wrap;html=1;" vertex="1" parent="dWhKE6HjYdEJjCNjdTQ_-24">
          <mxGeometry y="180" width="140" height="30" as="geometry" />
        </mxCell>
        <mxCell id="dWhKE6HjYdEJjCNjdTQ_-31" value="WORD" style="text;strokeColor=none;fillColor=none;align=left;verticalAlign=middle;spacingLeft=4;spacingRight=4;overflow=hidden;points=[[0,0.5],[1,0.5]];portConstraint=eastwest;rotatable=0;whiteSpace=wrap;html=1;" vertex="1" parent="dWhKE6HjYdEJjCNjdTQ_-24">
          <mxGeometry y="210" width="140" height="30" as="geometry" />
        </mxCell>
        <mxCell id="dWhKE6HjYdEJjCNjdTQ_-32" style="edgeStyle=orthogonalEdgeStyle;rounded=0;orthogonalLoop=1;jettySize=auto;html=1;entryX=0;entryY=0.114;entryDx=0;entryDy=0;entryPerimeter=0;" edge="1" parent="dWhKE6HjYdEJjCNjdTQ_-23" target="dWhKE6HjYdEJjCNjdTQ_-40">
          <mxGeometry relative="1" as="geometry">
            <mxPoint x="180" y="27.470588235294144" as="targetPoint" />
            <mxPoint x="140" y="45.000000000000114" as="sourcePoint" />
            <Array as="points">
              <mxPoint x="160" y="45" />
              <mxPoint x="160" y="17" />
            </Array>
          </mxGeometry>
        </mxCell>
        <mxCell id="dWhKE6HjYdEJjCNjdTQ_-33" style="edgeStyle=orthogonalEdgeStyle;rounded=0;orthogonalLoop=1;jettySize=auto;html=1;entryX=0.009;entryY=0.079;entryDx=0;entryDy=0;entryPerimeter=0;" edge="1" parent="dWhKE6HjYdEJjCNjdTQ_-23" target="dWhKE6HjYdEJjCNjdTQ_-34">
          <mxGeometry relative="1" as="geometry">
            <mxPoint x="220" y="87.47058823529414" as="targetPoint" />
            <mxPoint x="140" y="75.00000000000011" as="sourcePoint" />
            <Array as="points">
              <mxPoint x="160" y="75" />
              <mxPoint x="160" y="184" />
            </Array>
          </mxGeometry>
        </mxCell>
        <mxCell id="dWhKE6HjYdEJjCNjdTQ_-34" value="SEPARATOR" style="swimlane;fontStyle=0;childLayout=stackLayout;horizontal=1;startSize=30;horizontalStack=0;resizeParent=1;resizeParentMax=0;resizeLast=0;collapsible=1;marginBottom=0;whiteSpace=wrap;html=1;" vertex="1" parent="dWhKE6HjYdEJjCNjdTQ_-23">
          <mxGeometry x="190" y="170" width="140" height="180" as="geometry" />
        </mxCell>
        <mxCell id="dWhKE6HjYdEJjCNjdTQ_-35" value="PIPE" style="text;strokeColor=none;fillColor=none;align=left;verticalAlign=middle;spacingLeft=4;spacingRight=4;overflow=hidden;points=[[0,0.5],[1,0.5]];portConstraint=eastwest;rotatable=0;whiteSpace=wrap;html=1;" vertex="1" parent="dWhKE6HjYdEJjCNjdTQ_-34">
          <mxGeometry y="30" width="140" height="30" as="geometry" />
        </mxCell>
        <mxCell id="dWhKE6HjYdEJjCNjdTQ_-36" value="&amp;amp;" style="text;strokeColor=none;fillColor=none;align=left;verticalAlign=middle;spacingLeft=4;spacingRight=4;overflow=hidden;points=[[0,0.5],[1,0.5]];portConstraint=eastwest;rotatable=0;whiteSpace=wrap;html=1;" vertex="1" parent="dWhKE6HjYdEJjCNjdTQ_-34">
          <mxGeometry y="60" width="140" height="30" as="geometry" />
        </mxCell>
        <mxCell id="dWhKE6HjYdEJjCNjdTQ_-37" value="&amp;amp;&amp;amp;" style="text;strokeColor=none;fillColor=none;align=left;verticalAlign=middle;spacingLeft=4;spacingRight=4;overflow=hidden;points=[[0,0.5],[1,0.5]];portConstraint=eastwest;rotatable=0;whiteSpace=wrap;html=1;" vertex="1" parent="dWhKE6HjYdEJjCNjdTQ_-34">
          <mxGeometry y="90" width="140" height="30" as="geometry" />
        </mxCell>
        <mxCell id="dWhKE6HjYdEJjCNjdTQ_-38" value="||" style="text;strokeColor=none;fillColor=none;align=left;verticalAlign=middle;spacingLeft=4;spacingRight=4;overflow=hidden;points=[[0,0.5],[1,0.5]];portConstraint=eastwest;rotatable=0;whiteSpace=wrap;html=1;" vertex="1" parent="dWhKE6HjYdEJjCNjdTQ_-34">
          <mxGeometry y="120" width="140" height="30" as="geometry" />
        </mxCell>
        <mxCell id="dWhKE6HjYdEJjCNjdTQ_-39" value=";" style="text;strokeColor=none;fillColor=none;align=left;verticalAlign=middle;spacingLeft=4;spacingRight=4;overflow=hidden;points=[[0,0.5],[1,0.5]];portConstraint=eastwest;rotatable=0;whiteSpace=wrap;html=1;" vertex="1" parent="dWhKE6HjYdEJjCNjdTQ_-34">
          <mxGeometry y="150" width="140" height="30" as="geometry" />
        </mxCell>
        <mxCell id="dWhKE6HjYdEJjCNjdTQ_-40" value="REDIRECTS" style="swimlane;fontStyle=0;childLayout=stackLayout;horizontal=1;startSize=30;horizontalStack=0;resizeParent=1;resizeParentMax=0;resizeLast=0;collapsible=1;marginBottom=0;whiteSpace=wrap;html=1;" vertex="1" parent="dWhKE6HjYdEJjCNjdTQ_-23">
          <mxGeometry x="190" width="140" height="150" as="geometry" />
        </mxCell>
        <mxCell id="dWhKE6HjYdEJjCNjdTQ_-41" value="&amp;lt;" style="text;strokeColor=none;fillColor=none;align=left;verticalAlign=middle;spacingLeft=4;spacingRight=4;overflow=hidden;points=[[0,0.5],[1,0.5]];portConstraint=eastwest;rotatable=0;whiteSpace=wrap;html=1;" vertex="1" parent="dWhKE6HjYdEJjCNjdTQ_-40">
          <mxGeometry y="30" width="140" height="30" as="geometry" />
        </mxCell>
        <mxCell id="dWhKE6HjYdEJjCNjdTQ_-42" value="&amp;lt;&amp;lt;" style="text;strokeColor=none;fillColor=none;align=left;verticalAlign=middle;spacingLeft=4;spacingRight=4;overflow=hidden;points=[[0,0.5],[1,0.5]];portConstraint=eastwest;rotatable=0;whiteSpace=wrap;html=1;" vertex="1" parent="dWhKE6HjYdEJjCNjdTQ_-40">
          <mxGeometry y="60" width="140" height="30" as="geometry" />
        </mxCell>
        <mxCell id="dWhKE6HjYdEJjCNjdTQ_-43" value="&amp;gt;" style="text;strokeColor=none;fillColor=none;align=left;verticalAlign=middle;spacingLeft=4;spacingRight=4;overflow=hidden;points=[[0,0.5],[1,0.5]];portConstraint=eastwest;rotatable=0;whiteSpace=wrap;html=1;" vertex="1" parent="dWhKE6HjYdEJjCNjdTQ_-40">
          <mxGeometry y="90" width="140" height="30" as="geometry" />
        </mxCell>
        <mxCell id="dWhKE6HjYdEJjCNjdTQ_-44" value="&amp;gt;&amp;gt;" style="text;strokeColor=none;fillColor=none;align=left;verticalAlign=middle;spacingLeft=4;spacingRight=4;overflow=hidden;points=[[0,0.5],[1,0.5]];portConstraint=eastwest;rotatable=0;whiteSpace=wrap;html=1;" vertex="1" parent="dWhKE6HjYdEJjCNjdTQ_-40">
          <mxGeometry y="120" width="140" height="30" as="geometry" />
        </mxCell>
        <mxCell id="dWhKE6HjYdEJjCNjdTQ_-45" value="" style="ellipse;whiteSpace=wrap;html=1;aspect=fixed;" vertex="1" parent="1">
          <mxGeometry x="1238" y="20" width="40" height="40" as="geometry" />
        </mxCell>
        <mxCell id="dWhKE6HjYdEJjCNjdTQ_-46" value="&lt;div&gt;&lt;br&gt;&lt;/div&gt;" style="rounded=1;whiteSpace=wrap;html=1;" vertex="1" parent="1">
          <mxGeometry x="1160" y="70" width="120" height="40" as="geometry" />
        </mxCell>
        <mxCell id="dWhKE6HjYdEJjCNjdTQ_-47" value="&lt;div&gt;SIMPLE_CMD&lt;/div&gt;&lt;div&gt;(cat A)&lt;/div&gt;" style="rounded=1;whiteSpace=wrap;html=1;" vertex="1" parent="1">
          <mxGeometry x="230" y="260" width="120" height="40" as="geometry" />
        </mxCell>
        <mxCell id="dWhKE6HjYdEJjCNjdTQ_-48" value="&lt;div&gt;S&lt;/div&gt;&lt;div&gt;&lt;span style=&quot;font-size: 15px; text-align: left;&quot;&gt;cat B | grep &quot;hello&quot; &amp;amp;&amp;amp; PARENTHESIS&lt;/span&gt;&lt;br&gt;&lt;/div&gt;" style="rounded=1;whiteSpace=wrap;html=1;" vertex="1" parent="1">
          <mxGeometry x="870" y="260" width="290" height="40" as="geometry" />
        </mxCell>
      </root>
    </mxGraphModel>
  </diagram>
  <diagram id="pJhEiQW3kNu4byzCB6Dc" name="페이지-3">
    <mxGraphModel dx="1687" dy="901" grid="1" gridSize="10" guides="1" tooltips="1" connect="1" arrows="1" fold="1" page="1" pageScale="1" pageWidth="827" pageHeight="1169" math="0" shadow="0">
      <root>
        <mxCell id="0" />
        <mxCell id="1" parent="0" />
        <mxCell id="u8ung63PTtlJKV25Zt-X-1" value="" style="group" vertex="1" connectable="0" parent="1">
          <mxGeometry x="1280" y="10" width="330" height="350" as="geometry" />
        </mxCell>
        <mxCell id="u8ung63PTtlJKV25Zt-X-2" value="TOKEN" style="swimlane;fontStyle=0;childLayout=stackLayout;horizontal=1;startSize=30;horizontalStack=0;resizeParent=1;resizeParentMax=0;resizeLast=0;collapsible=1;marginBottom=0;whiteSpace=wrap;html=1;" vertex="1" parent="u8ung63PTtlJKV25Zt-X-1">
          <mxGeometry width="140" height="240" as="geometry" />
        </mxCell>
        <mxCell id="u8ung63PTtlJKV25Zt-X-3" value="CMD" style="text;strokeColor=none;fillColor=none;align=left;verticalAlign=middle;spacingLeft=4;spacingRight=4;overflow=hidden;points=[[0,0.5],[1,0.5]];portConstraint=eastwest;rotatable=0;whiteSpace=wrap;html=1;" vertex="1" parent="u8ung63PTtlJKV25Zt-X-2">
          <mxGeometry y="30" width="140" height="30" as="geometry" />
        </mxCell>
        <mxCell id="u8ung63PTtlJKV25Zt-X-4" value="REDIRECTS" style="text;strokeColor=none;fillColor=none;align=left;verticalAlign=middle;spacingLeft=4;spacingRight=4;overflow=hidden;points=[[0,0.5],[1,0.5]];portConstraint=eastwest;rotatable=0;whiteSpace=wrap;html=1;" vertex="1" parent="u8ung63PTtlJKV25Zt-X-2">
          <mxGeometry y="60" width="140" height="30" as="geometry" />
        </mxCell>
        <mxCell id="u8ung63PTtlJKV25Zt-X-5" value="SEPARATOR" style="text;strokeColor=none;fillColor=none;align=left;verticalAlign=middle;spacingLeft=4;spacingRight=4;overflow=hidden;points=[[0,0.5],[1,0.5]];portConstraint=eastwest;rotatable=0;whiteSpace=wrap;html=1;" vertex="1" parent="u8ung63PTtlJKV25Zt-X-2">
          <mxGeometry y="90" width="140" height="30" as="geometry" />
        </mxCell>
        <mxCell id="u8ung63PTtlJKV25Zt-X-6" value="PARENTHESIS" style="text;strokeColor=none;fillColor=none;align=left;verticalAlign=middle;spacingLeft=4;spacingRight=4;overflow=hidden;points=[[0,0.5],[1,0.5]];portConstraint=eastwest;rotatable=0;whiteSpace=wrap;html=1;" vertex="1" parent="u8ung63PTtlJKV25Zt-X-2">
          <mxGeometry y="120" width="140" height="30" as="geometry" />
        </mxCell>
        <mxCell id="u8ung63PTtlJKV25Zt-X-7" value="SIMPLE_CMD" style="text;strokeColor=none;fillColor=none;align=left;verticalAlign=middle;spacingLeft=4;spacingRight=4;overflow=hidden;points=[[0,0.5],[1,0.5]];portConstraint=eastwest;rotatable=0;whiteSpace=wrap;html=1;" vertex="1" parent="u8ung63PTtlJKV25Zt-X-2">
          <mxGeometry y="150" width="140" height="30" as="geometry" />
        </mxCell>
        <mxCell id="u8ung63PTtlJKV25Zt-X-8" value="FILE" style="text;strokeColor=none;fillColor=none;align=left;verticalAlign=middle;spacingLeft=4;spacingRight=4;overflow=hidden;points=[[0,0.5],[1,0.5]];portConstraint=eastwest;rotatable=0;whiteSpace=wrap;html=1;" vertex="1" parent="u8ung63PTtlJKV25Zt-X-2">
          <mxGeometry y="180" width="140" height="30" as="geometry" />
        </mxCell>
        <mxCell id="u8ung63PTtlJKV25Zt-X-9" value="WORD" style="text;strokeColor=none;fillColor=none;align=left;verticalAlign=middle;spacingLeft=4;spacingRight=4;overflow=hidden;points=[[0,0.5],[1,0.5]];portConstraint=eastwest;rotatable=0;whiteSpace=wrap;html=1;" vertex="1" parent="u8ung63PTtlJKV25Zt-X-2">
          <mxGeometry y="210" width="140" height="30" as="geometry" />
        </mxCell>
        <mxCell id="u8ung63PTtlJKV25Zt-X-10" style="edgeStyle=orthogonalEdgeStyle;rounded=0;orthogonalLoop=1;jettySize=auto;html=1;entryX=0;entryY=0.114;entryDx=0;entryDy=0;entryPerimeter=0;" edge="1" parent="u8ung63PTtlJKV25Zt-X-1" target="u8ung63PTtlJKV25Zt-X-18">
          <mxGeometry relative="1" as="geometry">
            <mxPoint x="180" y="27.470588235294144" as="targetPoint" />
            <mxPoint x="140" y="45.000000000000114" as="sourcePoint" />
            <Array as="points">
              <mxPoint x="160" y="45" />
              <mxPoint x="160" y="17" />
            </Array>
          </mxGeometry>
        </mxCell>
        <mxCell id="u8ung63PTtlJKV25Zt-X-11" style="edgeStyle=orthogonalEdgeStyle;rounded=0;orthogonalLoop=1;jettySize=auto;html=1;entryX=0.009;entryY=0.079;entryDx=0;entryDy=0;entryPerimeter=0;" edge="1" parent="u8ung63PTtlJKV25Zt-X-1" target="u8ung63PTtlJKV25Zt-X-12">
          <mxGeometry relative="1" as="geometry">
            <mxPoint x="220" y="87.47058823529414" as="targetPoint" />
            <mxPoint x="140" y="75.00000000000011" as="sourcePoint" />
            <Array as="points">
              <mxPoint x="160" y="75" />
              <mxPoint x="160" y="184" />
            </Array>
          </mxGeometry>
        </mxCell>
        <mxCell id="u8ung63PTtlJKV25Zt-X-12" value="SEPARATOR" style="swimlane;fontStyle=0;childLayout=stackLayout;horizontal=1;startSize=30;horizontalStack=0;resizeParent=1;resizeParentMax=0;resizeLast=0;collapsible=1;marginBottom=0;whiteSpace=wrap;html=1;" vertex="1" parent="u8ung63PTtlJKV25Zt-X-1">
          <mxGeometry x="190" y="170" width="140" height="180" as="geometry" />
        </mxCell>
        <mxCell id="u8ung63PTtlJKV25Zt-X-13" value="PIPE" style="text;strokeColor=none;fillColor=none;align=left;verticalAlign=middle;spacingLeft=4;spacingRight=4;overflow=hidden;points=[[0,0.5],[1,0.5]];portConstraint=eastwest;rotatable=0;whiteSpace=wrap;html=1;" vertex="1" parent="u8ung63PTtlJKV25Zt-X-12">
          <mxGeometry y="30" width="140" height="30" as="geometry" />
        </mxCell>
        <mxCell id="u8ung63PTtlJKV25Zt-X-14" value="&amp;amp;" style="text;strokeColor=none;fillColor=none;align=left;verticalAlign=middle;spacingLeft=4;spacingRight=4;overflow=hidden;points=[[0,0.5],[1,0.5]];portConstraint=eastwest;rotatable=0;whiteSpace=wrap;html=1;" vertex="1" parent="u8ung63PTtlJKV25Zt-X-12">
          <mxGeometry y="60" width="140" height="30" as="geometry" />
        </mxCell>
        <mxCell id="u8ung63PTtlJKV25Zt-X-15" value="&amp;amp;&amp;amp;" style="text;strokeColor=none;fillColor=none;align=left;verticalAlign=middle;spacingLeft=4;spacingRight=4;overflow=hidden;points=[[0,0.5],[1,0.5]];portConstraint=eastwest;rotatable=0;whiteSpace=wrap;html=1;" vertex="1" parent="u8ung63PTtlJKV25Zt-X-12">
          <mxGeometry y="90" width="140" height="30" as="geometry" />
        </mxCell>
        <mxCell id="u8ung63PTtlJKV25Zt-X-16" value="||" style="text;strokeColor=none;fillColor=none;align=left;verticalAlign=middle;spacingLeft=4;spacingRight=4;overflow=hidden;points=[[0,0.5],[1,0.5]];portConstraint=eastwest;rotatable=0;whiteSpace=wrap;html=1;" vertex="1" parent="u8ung63PTtlJKV25Zt-X-12">
          <mxGeometry y="120" width="140" height="30" as="geometry" />
        </mxCell>
        <mxCell id="u8ung63PTtlJKV25Zt-X-17" value=";" style="text;strokeColor=none;fillColor=none;align=left;verticalAlign=middle;spacingLeft=4;spacingRight=4;overflow=hidden;points=[[0,0.5],[1,0.5]];portConstraint=eastwest;rotatable=0;whiteSpace=wrap;html=1;" vertex="1" parent="u8ung63PTtlJKV25Zt-X-12">
          <mxGeometry y="150" width="140" height="30" as="geometry" />
        </mxCell>
        <mxCell id="u8ung63PTtlJKV25Zt-X-18" value="REDIRECTS" style="swimlane;fontStyle=0;childLayout=stackLayout;horizontal=1;startSize=30;horizontalStack=0;resizeParent=1;resizeParentMax=0;resizeLast=0;collapsible=1;marginBottom=0;whiteSpace=wrap;html=1;" vertex="1" parent="u8ung63PTtlJKV25Zt-X-1">
          <mxGeometry x="190" width="140" height="150" as="geometry" />
        </mxCell>
        <mxCell id="u8ung63PTtlJKV25Zt-X-19" value="&amp;lt;" style="text;strokeColor=none;fillColor=none;align=left;verticalAlign=middle;spacingLeft=4;spacingRight=4;overflow=hidden;points=[[0,0.5],[1,0.5]];portConstraint=eastwest;rotatable=0;whiteSpace=wrap;html=1;" vertex="1" parent="u8ung63PTtlJKV25Zt-X-18">
          <mxGeometry y="30" width="140" height="30" as="geometry" />
        </mxCell>
        <mxCell id="u8ung63PTtlJKV25Zt-X-20" value="&amp;lt;&amp;lt;" style="text;strokeColor=none;fillColor=none;align=left;verticalAlign=middle;spacingLeft=4;spacingRight=4;overflow=hidden;points=[[0,0.5],[1,0.5]];portConstraint=eastwest;rotatable=0;whiteSpace=wrap;html=1;" vertex="1" parent="u8ung63PTtlJKV25Zt-X-18">
          <mxGeometry y="60" width="140" height="30" as="geometry" />
        </mxCell>
        <mxCell id="u8ung63PTtlJKV25Zt-X-21" value="&amp;gt;" style="text;strokeColor=none;fillColor=none;align=left;verticalAlign=middle;spacingLeft=4;spacingRight=4;overflow=hidden;points=[[0,0.5],[1,0.5]];portConstraint=eastwest;rotatable=0;whiteSpace=wrap;html=1;" vertex="1" parent="u8ung63PTtlJKV25Zt-X-18">
          <mxGeometry y="90" width="140" height="30" as="geometry" />
        </mxCell>
        <mxCell id="u8ung63PTtlJKV25Zt-X-22" value="&amp;gt;&amp;gt;" style="text;strokeColor=none;fillColor=none;align=left;verticalAlign=middle;spacingLeft=4;spacingRight=4;overflow=hidden;points=[[0,0.5],[1,0.5]];portConstraint=eastwest;rotatable=0;whiteSpace=wrap;html=1;" vertex="1" parent="u8ung63PTtlJKV25Zt-X-18">
          <mxGeometry y="120" width="140" height="30" as="geometry" />
        </mxCell>
        <UserObject label="S&#xa;(cat file1.txt || echo &quot;file1 missing&quot; &gt; log.txt) &amp;&amp; (grep &quot;pattern&quot; file2.txt | sort &gt; output.txt) || (echo &quot;fallback&quot; &gt;&gt; error.log &amp;&amp; ls -l)&#xa;-&gt; PARENTHESIS &amp;&amp; PARENTHESIS || PARENTHESIS" id="u8ung63PTtlJKV25Zt-X-23">
          <mxCell style="text;whiteSpace=wrap;fontStyle=0;align=center;" vertex="1" parent="1">
            <mxGeometry x="200" y="130" width="680" height="50" as="geometry" />
          </mxCell>
        </UserObject>
        <mxCell id="u8ung63PTtlJKV25Zt-X-24" value="AND" style="ellipse;whiteSpace=wrap;html=1;aspect=fixed;movable=1;resizable=1;rotatable=1;deletable=1;editable=1;locked=0;connectable=1;fontStyle=0;fillColor=#ffe6cc;strokeColor=#d79b00;" vertex="1" parent="1">
          <mxGeometry x="520" y="180" width="40" height="40" as="geometry" />
        </mxCell>
        <mxCell id="u8ung63PTtlJKV25Zt-X-25" value="" style="endArrow=none;html=1;rounded=0;entryX=0;entryY=1;entryDx=0;entryDy=0;exitX=0.5;exitY=0;exitDx=0;exitDy=0;" edge="1" parent="1" source="u8ung63PTtlJKV25Zt-X-27" target="u8ung63PTtlJKV25Zt-X-24">
          <mxGeometry width="50" height="50" relative="1" as="geometry">
            <mxPoint x="430" y="260" as="sourcePoint" />
            <mxPoint x="620" y="380" as="targetPoint" />
          </mxGeometry>
        </mxCell>
        <mxCell id="u8ung63PTtlJKV25Zt-X-26" value="" style="endArrow=none;html=1;rounded=0;entryX=1;entryY=1;entryDx=0;entryDy=0;exitX=0.5;exitY=0;exitDx=0;exitDy=0;" edge="1" parent="1" source="u8ung63PTtlJKV25Zt-X-28" target="u8ung63PTtlJKV25Zt-X-24">
          <mxGeometry width="50" height="50" relative="1" as="geometry">
            <mxPoint x="650" y="260" as="sourcePoint" />
            <mxPoint x="600" y="230" as="targetPoint" />
          </mxGeometry>
        </mxCell>
        <mxCell id="u8ung63PTtlJKV25Zt-X-27" value="PARENTHESIS&lt;br&gt;(cat file1.txt || echo &quot;file1 missing&quot; &amp;gt; log.txt)" style="rounded=1;whiteSpace=wrap;html=1;" vertex="1" parent="1">
          <mxGeometry x="170" y="260" width="240" height="40" as="geometry" />
        </mxCell>
        <mxCell id="u8ung63PTtlJKV25Zt-X-28" value="CMDS&lt;br&gt;(grep &quot;pattern&quot; file2.txt | sort &amp;gt; output.txt) || (echo &quot;fallback&quot; &amp;gt;&amp;gt; error.log &amp;amp;&amp;amp; ls -l)" style="rounded=1;whiteSpace=wrap;html=1;" vertex="1" parent="1">
          <mxGeometry x="710" y="260" width="440" height="40" as="geometry" />
        </mxCell>
        <mxCell id="u8ung63PTtlJKV25Zt-X-29" value="OR" style="ellipse;whiteSpace=wrap;html=1;aspect=fixed;fillColor=#ffe6cc;strokeColor=#d79b00;" vertex="1" parent="1">
          <mxGeometry x="270" y="310" width="40" height="40" as="geometry" />
        </mxCell>
        <mxCell id="u8ung63PTtlJKV25Zt-X-30" value="CMD" style="ellipse;whiteSpace=wrap;html=1;aspect=fixed;fillColor=#d5e8d4;strokeColor=#82b366;" vertex="1" parent="1">
          <mxGeometry x="370" y="390" width="40" height="40" as="geometry" />
        </mxCell>
        <mxCell id="u8ung63PTtlJKV25Zt-X-31" value="" style="endArrow=none;html=1;rounded=0;entryX=0.5;entryY=1;entryDx=0;entryDy=0;exitX=0.5;exitY=0;exitDx=0;exitDy=0;" edge="1" parent="1" source="u8ung63PTtlJKV25Zt-X-29" target="u8ung63PTtlJKV25Zt-X-27">
          <mxGeometry width="50" height="50" relative="1" as="geometry">
            <mxPoint x="300" y="270" as="sourcePoint" />
            <mxPoint x="546" y="224" as="targetPoint" />
          </mxGeometry>
        </mxCell>
        <mxCell id="u8ung63PTtlJKV25Zt-X-32" value="" style="endArrow=none;html=1;rounded=0;entryX=0;entryY=1;entryDx=0;entryDy=0;exitX=0.75;exitY=0;exitDx=0;exitDy=0;" edge="1" parent="1" source="u8ung63PTtlJKV25Zt-X-35" target="u8ung63PTtlJKV25Zt-X-29">
          <mxGeometry width="50" height="50" relative="1" as="geometry">
            <mxPoint x="164.14213562373106" y="395.85786437626894" as="sourcePoint" />
            <mxPoint x="546" y="224" as="targetPoint" />
          </mxGeometry>
        </mxCell>
        <mxCell id="u8ung63PTtlJKV25Zt-X-33" value="" style="endArrow=none;html=1;rounded=0;entryX=1;entryY=1;entryDx=0;entryDy=0;exitX=0;exitY=0;exitDx=0;exitDy=0;" edge="1" parent="1" source="u8ung63PTtlJKV25Zt-X-30" target="u8ung63PTtlJKV25Zt-X-29">
          <mxGeometry width="50" height="50" relative="1" as="geometry">
            <mxPoint x="205" y="410" as="sourcePoint" />
            <mxPoint x="286" y="354" as="targetPoint" />
          </mxGeometry>
        </mxCell>
        <mxCell id="u8ung63PTtlJKV25Zt-X-35" value="SIMPLE_CMD&lt;br&gt;( cat file1.txt)" style="rounded=1;whiteSpace=wrap;html=1;fillColor=#d5e8d4;strokeColor=#82b366;" vertex="1" parent="1">
          <mxGeometry x="110" y="390" width="90" height="40" as="geometry" />
        </mxCell>
        <mxCell id="u8ung63PTtlJKV25Zt-X-36" value="OUT" style="ellipse;whiteSpace=wrap;html=1;aspect=fixed;fillColor=#d5e8d4;strokeColor=#82b366;" vertex="1" parent="1">
          <mxGeometry x="270" y="470" width="40" height="40" as="geometry" />
        </mxCell>
        <mxCell id="u8ung63PTtlJKV25Zt-X-37" value="REDIRECTION&lt;div&gt;( &amp;gt; )&lt;/div&gt;" style="rounded=1;whiteSpace=wrap;html=1;fillColor=#e1d5e7;strokeColor=#9673a6;" vertex="1" parent="1">
          <mxGeometry x="190" y="550" width="90" height="40" as="geometry" />
        </mxCell>
        <mxCell id="u8ung63PTtlJKV25Zt-X-38" value="FILE&lt;br&gt;( log.txt )" style="rounded=1;whiteSpace=wrap;html=1;fillColor=#e1d5e7;strokeColor=#9673a6;" vertex="1" parent="1">
          <mxGeometry x="300" y="550" width="90" height="40" as="geometry" />
        </mxCell>
        <mxCell id="u8ung63PTtlJKV25Zt-X-40" value="SIMPLE_CMD&lt;br&gt;( echo &quot;file1 missing&quot; )" style="rounded=1;whiteSpace=wrap;html=1;fillColor=#e1d5e7;strokeColor=#9673a6;" vertex="1" parent="1">
          <mxGeometry x="400" y="470" width="130" height="40" as="geometry" />
        </mxCell>
        <mxCell id="u8ung63PTtlJKV25Zt-X-43" value="" style="endArrow=none;html=1;rounded=0;entryX=0;entryY=1;entryDx=0;entryDy=0;exitX=1;exitY=0;exitDx=0;exitDy=0;" edge="1" parent="1" source="u8ung63PTtlJKV25Zt-X-36" target="u8ung63PTtlJKV25Zt-X-30">
          <mxGeometry width="50" height="50" relative="1" as="geometry">
            <mxPoint x="426" y="405" as="sourcePoint" />
            <mxPoint x="314" y="354" as="targetPoint" />
          </mxGeometry>
        </mxCell>
        <mxCell id="u8ung63PTtlJKV25Zt-X-44" value="" style="endArrow=none;html=1;rounded=0;entryX=0.5;entryY=0;entryDx=0;entryDy=0;exitX=0;exitY=1;exitDx=0;exitDy=0;fillColor=#e1d5e7;strokeColor=#9673a6;" edge="1" parent="1" source="u8ung63PTtlJKV25Zt-X-36" target="u8ung63PTtlJKV25Zt-X-37">
          <mxGeometry width="50" height="50" relative="1" as="geometry">
            <mxPoint x="314" y="486" as="sourcePoint" />
            <mxPoint x="426" y="435" as="targetPoint" />
          </mxGeometry>
        </mxCell>
        <mxCell id="u8ung63PTtlJKV25Zt-X-45" value="" style="endArrow=none;html=1;rounded=0;entryX=0.5;entryY=0;entryDx=0;entryDy=0;exitX=1;exitY=1;exitDx=0;exitDy=0;fillColor=#e1d5e7;strokeColor=#9673a6;" edge="1" parent="1" source="u8ung63PTtlJKV25Zt-X-36" target="u8ung63PTtlJKV25Zt-X-38">
          <mxGeometry width="50" height="50" relative="1" as="geometry">
            <mxPoint x="286" y="514" as="sourcePoint" />
            <mxPoint x="268" y="560" as="targetPoint" />
          </mxGeometry>
        </mxCell>
        <mxCell id="u8ung63PTtlJKV25Zt-X-46" value="" style="endArrow=none;html=1;rounded=0;entryX=1;entryY=1;entryDx=0;entryDy=0;exitX=0.5;exitY=0;exitDx=0;exitDy=0;" edge="1" parent="1" source="u8ung63PTtlJKV25Zt-X-40" target="u8ung63PTtlJKV25Zt-X-30">
          <mxGeometry width="50" height="50" relative="1" as="geometry">
            <mxPoint x="495.8578643763044" y="475.85786437630463" as="sourcePoint" />
            <mxPoint x="386" y="434" as="targetPoint" />
          </mxGeometry>
        </mxCell>
        <mxCell id="u8ung63PTtlJKV25Zt-X-47" value="OR" style="ellipse;whiteSpace=wrap;html=1;aspect=fixed;fillColor=#ffe6cc;strokeColor=#d79b00;" vertex="1" parent="1">
          <mxGeometry x="910" y="310" width="40" height="40" as="geometry" />
        </mxCell>
        <mxCell id="u8ung63PTtlJKV25Zt-X-48" value="" style="endArrow=none;html=1;rounded=0;entryX=0.5;entryY=1;entryDx=0;entryDy=0;exitX=0.5;exitY=0;exitDx=0;exitDy=0;" edge="1" parent="1" source="u8ung63PTtlJKV25Zt-X-47" target="u8ung63PTtlJKV25Zt-X-28">
          <mxGeometry width="50" height="50" relative="1" as="geometry">
            <mxPoint x="955" y="280" as="sourcePoint" />
            <mxPoint x="945" y="310" as="targetPoint" />
          </mxGeometry>
        </mxCell>
        <mxCell id="u8ung63PTtlJKV25Zt-X-49" value="PARENTHESIS&lt;br&gt;(grep &quot;pattern&quot; file2.txt | sort &amp;gt; output.txt)" style="rounded=1;whiteSpace=wrap;html=1;" vertex="1" parent="1">
          <mxGeometry x="680" y="390" width="240" height="40" as="geometry" />
        </mxCell>
        <mxCell id="u8ung63PTtlJKV25Zt-X-50" value="PARENTHESIS&lt;br&gt;( echo &quot;fallback&quot; &amp;gt;&amp;gt; error.log &amp;amp;&amp;amp; ls -l )" style="rounded=1;whiteSpace=wrap;html=1;" vertex="1" parent="1">
          <mxGeometry x="1238" y="390" width="240" height="40" as="geometry" />
        </mxCell>
        <mxCell id="u8ung63PTtlJKV25Zt-X-51" value="" style="endArrow=none;html=1;rounded=0;entryX=0;entryY=1;entryDx=0;entryDy=0;exitX=0.5;exitY=0;exitDx=0;exitDy=0;" edge="1" parent="1" source="u8ung63PTtlJKV25Zt-X-49" target="u8ung63PTtlJKV25Zt-X-47">
          <mxGeometry width="50" height="50" relative="1" as="geometry">
            <mxPoint x="296" y="406" as="sourcePoint" />
            <mxPoint x="224" y="354" as="targetPoint" />
          </mxGeometry>
        </mxCell>
        <mxCell id="u8ung63PTtlJKV25Zt-X-52" value="" style="endArrow=none;html=1;rounded=0;entryX=1;entryY=1;entryDx=0;entryDy=0;exitX=0.5;exitY=0;exitDx=0;exitDy=0;" edge="1" parent="1" source="u8ung63PTtlJKV25Zt-X-50" target="u8ung63PTtlJKV25Zt-X-47">
          <mxGeometry width="50" height="50" relative="1" as="geometry">
            <mxPoint x="720" y="400" as="sourcePoint" />
            <mxPoint x="926" y="354" as="targetPoint" />
          </mxGeometry>
        </mxCell>
        <mxCell id="u8ung63PTtlJKV25Zt-X-53" value="PIPE" style="ellipse;whiteSpace=wrap;html=1;aspect=fixed;fillColor=#ffe6cc;strokeColor=#d79b00;" vertex="1" parent="1">
          <mxGeometry x="780" y="440" width="40" height="40" as="geometry" />
        </mxCell>
        <mxCell id="u8ung63PTtlJKV25Zt-X-54" value="" style="endArrow=none;html=1;rounded=0;entryX=0.5;entryY=1;entryDx=0;entryDy=0;exitX=0.5;exitY=0;exitDx=0;exitDy=0;" edge="1" parent="1" source="u8ung63PTtlJKV25Zt-X-53" target="u8ung63PTtlJKV25Zt-X-49">
          <mxGeometry width="50" height="50" relative="1" as="geometry">
            <mxPoint x="820" y="400" as="sourcePoint" />
            <mxPoint x="926" y="354" as="targetPoint" />
          </mxGeometry>
        </mxCell>
        <mxCell id="u8ung63PTtlJKV25Zt-X-56" value="CMD" style="ellipse;whiteSpace=wrap;html=1;aspect=fixed;fillColor=#d5e8d4;strokeColor=#82b366;" vertex="1" parent="1">
          <mxGeometry x="900" y="500" width="40" height="40" as="geometry" />
        </mxCell>
        <mxCell id="u8ung63PTtlJKV25Zt-X-57" value="" style="endArrow=none;html=1;rounded=0;entryX=0;entryY=1;entryDx=0;entryDy=0;exitX=0.5;exitY=0;exitDx=0;exitDy=0;" edge="1" parent="1" source="u8ung63PTtlJKV25Zt-X-59" target="u8ung63PTtlJKV25Zt-X-53">
          <mxGeometry width="50" height="50" relative="1" as="geometry">
            <mxPoint x="694.1421356237311" y="505.85786437626894" as="sourcePoint" />
            <mxPoint x="926" y="354" as="targetPoint" />
          </mxGeometry>
        </mxCell>
        <mxCell id="u8ung63PTtlJKV25Zt-X-58" value="" style="endArrow=none;html=1;rounded=0;entryX=1;entryY=1;entryDx=0;entryDy=0;exitX=0;exitY=0;exitDx=0;exitDy=0;" edge="1" parent="1" source="u8ung63PTtlJKV25Zt-X-56" target="u8ung63PTtlJKV25Zt-X-53">
          <mxGeometry width="50" height="50" relative="1" as="geometry">
            <mxPoint x="714" y="516" as="sourcePoint" />
            <mxPoint x="806" y="484" as="targetPoint" />
          </mxGeometry>
        </mxCell>
        <mxCell id="u8ung63PTtlJKV25Zt-X-59" value="SIMPLE_CMD&lt;br&gt;( grep &quot;pattern&quot; file2.txt&amp;nbsp;)" style="rounded=1;whiteSpace=wrap;html=1;fillColor=#d5e8d4;strokeColor=#82b366;" vertex="1" parent="1">
          <mxGeometry x="600" y="500" width="170" height="40" as="geometry" />
        </mxCell>
        <mxCell id="u8ung63PTtlJKV25Zt-X-63" value="OUT" style="ellipse;whiteSpace=wrap;html=1;aspect=fixed;fillColor=#d5e8d4;strokeColor=#82b366;" vertex="1" parent="1">
          <mxGeometry x="860" y="574" width="40" height="40" as="geometry" />
        </mxCell>
        <mxCell id="u8ung63PTtlJKV25Zt-X-64" value="REDIRECTION&lt;div&gt;( &amp;gt; )&lt;/div&gt;" style="rounded=1;whiteSpace=wrap;html=1;fillColor=#e1d5e7;strokeColor=#9673a6;" vertex="1" parent="1">
          <mxGeometry x="780" y="654" width="90" height="40" as="geometry" />
        </mxCell>
        <mxCell id="u8ung63PTtlJKV25Zt-X-65" value="FILE&lt;br&gt;( output.txt )" style="rounded=1;whiteSpace=wrap;html=1;fillColor=#e1d5e7;strokeColor=#9673a6;" vertex="1" parent="1">
          <mxGeometry x="890" y="654" width="90" height="40" as="geometry" />
        </mxCell>
        <mxCell id="u8ung63PTtlJKV25Zt-X-66" value="" style="endArrow=none;html=1;rounded=0;entryX=0.5;entryY=0;entryDx=0;entryDy=0;exitX=0;exitY=1;exitDx=0;exitDy=0;" edge="1" parent="1" source="u8ung63PTtlJKV25Zt-X-63" target="u8ung63PTtlJKV25Zt-X-64">
          <mxGeometry width="50" height="50" relative="1" as="geometry">
            <mxPoint x="904" y="590" as="sourcePoint" />
            <mxPoint x="1016" y="539" as="targetPoint" />
          </mxGeometry>
        </mxCell>
        <mxCell id="u8ung63PTtlJKV25Zt-X-67" value="" style="endArrow=none;html=1;rounded=0;entryX=0.5;entryY=0;entryDx=0;entryDy=0;exitX=1;exitY=1;exitDx=0;exitDy=0;" edge="1" parent="1" source="u8ung63PTtlJKV25Zt-X-63" target="u8ung63PTtlJKV25Zt-X-65">
          <mxGeometry width="50" height="50" relative="1" as="geometry">
            <mxPoint x="876" y="618" as="sourcePoint" />
            <mxPoint x="858" y="664" as="targetPoint" />
          </mxGeometry>
        </mxCell>
        <mxCell id="u8ung63PTtlJKV25Zt-X-68" value="" style="endArrow=none;html=1;rounded=0;entryX=0.5;entryY=0;entryDx=0;entryDy=0;exitX=0;exitY=1;exitDx=0;exitDy=0;" edge="1" parent="1" source="u8ung63PTtlJKV25Zt-X-56" target="u8ung63PTtlJKV25Zt-X-63">
          <mxGeometry width="50" height="50" relative="1" as="geometry">
            <mxPoint x="916" y="516" as="sourcePoint" />
            <mxPoint x="824" y="484" as="targetPoint" />
          </mxGeometry>
        </mxCell>
        <mxCell id="u8ung63PTtlJKV25Zt-X-69" value="SIMPLE_CMD&lt;br&gt;( sort )" style="rounded=1;whiteSpace=wrap;html=1;fillColor=#e1d5e7;strokeColor=#9673a6;" vertex="1" parent="1">
          <mxGeometry x="950" y="574" width="130" height="40" as="geometry" />
        </mxCell>
        <mxCell id="u8ung63PTtlJKV25Zt-X-70" value="" style="endArrow=none;html=1;rounded=0;entryX=0.5;entryY=0;entryDx=0;entryDy=0;exitX=1;exitY=1;exitDx=0;exitDy=0;" edge="1" parent="1" source="u8ung63PTtlJKV25Zt-X-56" target="u8ung63PTtlJKV25Zt-X-69">
          <mxGeometry width="50" height="50" relative="1" as="geometry">
            <mxPoint x="916" y="544" as="sourcePoint" />
            <mxPoint x="890" y="584" as="targetPoint" />
          </mxGeometry>
        </mxCell>
        <mxCell id="u8ung63PTtlJKV25Zt-X-71" value="AND" style="ellipse;whiteSpace=wrap;html=1;aspect=fixed;fillColor=#ffe6cc;strokeColor=#d79b00;" vertex="1" parent="1">
          <mxGeometry x="1338" y="440" width="40" height="40" as="geometry" />
        </mxCell>
        <mxCell id="u8ung63PTtlJKV25Zt-X-72" value="CMD" style="ellipse;whiteSpace=wrap;html=1;aspect=fixed;fillColor=#d5e8d4;strokeColor=#82b366;" vertex="1" parent="1">
          <mxGeometry x="1220" y="500" width="40" height="40" as="geometry" />
        </mxCell>
        <mxCell id="u8ung63PTtlJKV25Zt-X-73" value="" style="endArrow=none;html=1;rounded=0;entryX=0;entryY=1;entryDx=0;entryDy=0;exitX=1;exitY=0;exitDx=0;exitDy=0;" edge="1" parent="1" source="u8ung63PTtlJKV25Zt-X-72" target="u8ung63PTtlJKV25Zt-X-71">
          <mxGeometry width="50" height="50" relative="1" as="geometry">
            <mxPoint x="1380" y="436" as="sourcePoint" />
            <mxPoint x="1346" y="510" as="targetPoint" />
          </mxGeometry>
        </mxCell>
        <mxCell id="u8ung63PTtlJKV25Zt-X-74" value="" style="endArrow=none;html=1;rounded=0;entryX=1;entryY=1;entryDx=0;entryDy=0;exitX=0.5;exitY=0;exitDx=0;exitDy=0;" edge="1" parent="1" source="u8ung63PTtlJKV25Zt-X-84" target="u8ung63PTtlJKV25Zt-X-71">
          <mxGeometry width="50" height="50" relative="1" as="geometry">
            <mxPoint x="1465.8578643762685" y="505.85786437626894" as="sourcePoint" />
            <mxPoint x="1374" y="510" as="targetPoint" />
          </mxGeometry>
        </mxCell>
        <mxCell id="u8ung63PTtlJKV25Zt-X-75" value="" style="endArrow=none;html=1;rounded=0;entryX=0.5;entryY=1;entryDx=0;entryDy=0;exitX=0.5;exitY=0;exitDx=0;exitDy=0;" edge="1" parent="1" source="u8ung63PTtlJKV25Zt-X-71" target="u8ung63PTtlJKV25Zt-X-50">
          <mxGeometry width="50" height="50" relative="1" as="geometry">
            <mxPoint x="1368" y="400" as="sourcePoint" />
            <mxPoint x="954" y="354" as="targetPoint" />
          </mxGeometry>
        </mxCell>
        <mxCell id="u8ung63PTtlJKV25Zt-X-76" value="OUT" style="ellipse;whiteSpace=wrap;html=1;aspect=fixed;fillColor=#d5e8d4;strokeColor=#82b366;" vertex="1" parent="1">
          <mxGeometry x="1160" y="574" width="40" height="40" as="geometry" />
        </mxCell>
        <mxCell id="u8ung63PTtlJKV25Zt-X-77" value="REDIRECTION&lt;div&gt;( &amp;gt;&amp;gt; )&lt;/div&gt;" style="rounded=1;whiteSpace=wrap;html=1;fillColor=#e1d5e7;strokeColor=#9673a6;" vertex="1" parent="1">
          <mxGeometry x="1080" y="654" width="90" height="40" as="geometry" />
        </mxCell>
        <mxCell id="u8ung63PTtlJKV25Zt-X-78" value="FILE&lt;br&gt;( error.log )" style="rounded=1;whiteSpace=wrap;html=1;fillColor=#e1d5e7;strokeColor=#9673a6;" vertex="1" parent="1">
          <mxGeometry x="1190" y="654" width="90" height="40" as="geometry" />
        </mxCell>
        <mxCell id="u8ung63PTtlJKV25Zt-X-79" value="" style="endArrow=none;html=1;rounded=0;entryX=0.5;entryY=0;entryDx=0;entryDy=0;exitX=0;exitY=1;exitDx=0;exitDy=0;" edge="1" parent="1" source="u8ung63PTtlJKV25Zt-X-76" target="u8ung63PTtlJKV25Zt-X-77">
          <mxGeometry width="50" height="50" relative="1" as="geometry">
            <mxPoint x="1204" y="590" as="sourcePoint" />
            <mxPoint x="1316" y="539" as="targetPoint" />
          </mxGeometry>
        </mxCell>
        <mxCell id="u8ung63PTtlJKV25Zt-X-80" value="" style="endArrow=none;html=1;rounded=0;entryX=0.5;entryY=0;entryDx=0;entryDy=0;exitX=1;exitY=1;exitDx=0;exitDy=0;" edge="1" parent="1" source="u8ung63PTtlJKV25Zt-X-76" target="u8ung63PTtlJKV25Zt-X-78">
          <mxGeometry width="50" height="50" relative="1" as="geometry">
            <mxPoint x="1176" y="618" as="sourcePoint" />
            <mxPoint x="1158" y="664" as="targetPoint" />
          </mxGeometry>
        </mxCell>
        <mxCell id="u8ung63PTtlJKV25Zt-X-81" value="" style="endArrow=none;html=1;rounded=0;entryX=0;entryY=1;entryDx=0;entryDy=0;exitX=0.5;exitY=0;exitDx=0;exitDy=0;" edge="1" parent="1" source="u8ung63PTtlJKV25Zt-X-76" target="u8ung63PTtlJKV25Zt-X-72">
          <mxGeometry width="50" height="50" relative="1" as="geometry">
            <mxPoint x="1264" y="516" as="sourcePoint" />
            <mxPoint x="1354" y="484" as="targetPoint" />
          </mxGeometry>
        </mxCell>
        <mxCell id="u8ung63PTtlJKV25Zt-X-82" value="SIMPLE_CMD&lt;br&gt;( echo &quot;fallback&quot; )" style="rounded=1;whiteSpace=wrap;html=1;fillColor=#e1d5e7;strokeColor=#9673a6;" vertex="1" parent="1">
          <mxGeometry x="1270" y="574" width="130" height="40" as="geometry" />
        </mxCell>
        <mxCell id="u8ung63PTtlJKV25Zt-X-83" value="" style="endArrow=none;html=1;rounded=0;entryX=1;entryY=1;entryDx=0;entryDy=0;exitX=0.5;exitY=0;exitDx=0;exitDy=0;" edge="1" parent="1" source="u8ung63PTtlJKV25Zt-X-82" target="u8ung63PTtlJKV25Zt-X-72">
          <mxGeometry width="50" height="50" relative="1" as="geometry">
            <mxPoint x="1190" y="584" as="sourcePoint" />
            <mxPoint x="1236" y="544" as="targetPoint" />
          </mxGeometry>
        </mxCell>
        <mxCell id="u8ung63PTtlJKV25Zt-X-84" value="SIMPLE_CMD&lt;br&gt;( ls -l )" style="rounded=1;whiteSpace=wrap;html=1;fillColor=#d5e8d4;strokeColor=#82b366;" vertex="1" parent="1">
          <mxGeometry x="1410" y="500" width="130" height="40" as="geometry" />
        </mxCell>
        <mxCell id="u8ung63PTtlJKV25Zt-X-85" value="&lt;h1 style=&quot;margin-top: 0px;&quot;&gt;전위 순회 탐색&lt;/h1&gt;&lt;div&gt;&lt;font style=&quot;font-size: 15px;&quot;&gt;밑으로 내려가면서 SEPARATOR를 만나면 해당 SEPARATOR에 맞는 처리&lt;/font&gt;&lt;/div&gt;&lt;div&gt;&lt;font style=&quot;font-size: 15px;&quot;&gt;해당 노드의 자식 노드가 없으면 해당 노드의 특성에 맞는 처리 시행&lt;/font&gt;&lt;/div&gt;" style="text;html=1;whiteSpace=wrap;overflow=hidden;rounded=0;" vertex="1" parent="1">
          <mxGeometry x="40" y="40" width="650" height="100" as="geometry" />
        </mxCell>
      </root>
    </mxGraphModel>
  </diagram>
</mxfile>
